<?xml version="1.0" encoding="UTF-8"?><svg id="Capa_2" xmlns="http://www.w3.org/2000/svg" viewBox="0 0 126 126"><defs><style>.cls-1{fill:#fff;stroke-width:0px;}</style></defs><g id="Capa_1-2"><path class="cls-1" d="M63,0C28.26,0,0,28.26,0,63s28.26,63,63,63,63-28.26,63-63S97.74,0,63,0ZM63,117c-29.78,0-54-24.22-54-54S33.22,9,63,9s54,24.22,54,54-24.22,54-54,54Z"/><path class="cls-1" d="M62.82,36.59l-13.39-9.19-10.51,9.46-3.41-2.84v24.15l8.81,5.76-8.81,5.58v16.99l16.47,12.08,11.21-9.17,13.39,9.19,10.51-9.46,3.41,2.84v-24.15l-8.81-5.76,8.81-5.58v-16.99l-16.47-12.08-11.21,9.17ZM50.01,36.29l7.17,4.92-6.58,5.38-6.25-5.21,5.66-5.1ZM75.99,89.71l-7.17-4.92,6.58-5.38,6.25,5.21-5.66,5.1ZM83.5,71.62v5.42l-8.05-6.71-23.71,19.4-9.24-6.78v-9.59l8.25-5.23,10.5,6.87,13.93-8.82,8.31,5.43ZM57.25,64.02l7.43-4.71,4.07,2.66-7.43,4.71-4.07-2.66ZM83.5,43.05v9.59l-8.25,5.23-10.5-6.87-13.93,8.82-8.31-5.43v-5.42l8.05,6.71,23.71-19.4,9.24,6.78Z"/></g></svg>